# xmcd
#
# Track frame offsets:
#       150
#       11775
#       29250
#       43425
#       60225
#       72000
#       86775
#       99075
#
# Disc length: 1506 seconds
#
# Revision: 0
# Processed by: cddbd v1.4PL0 Copyright (c) Steve Scherf et al.
# Submitted via: CD-DA_X-Tractor v0.23
#
DISCID=5f05e008
DTITLE=Lazy Ike and the Daredevils - Someday
DYEAR=2002
DGENRE=country
TTITLE0=Someday, Someone
TTITLE1=Last Night I Drank Myself Sober
TTITLE2=For Lost Time
TTITLE3=My Life Line
TTITLE4=Dull Razor Blues
TTITLE5=Dinner for One
TTITLE6=Down by the Riverside
TTITLE7=Long, Tall Shadows
EXTD=
EXTT0=
EXTT1=
EXTT2=
EXTT3=
EXTT4=
EXTT5=
EXTT6=
EXTT7=
PLAYORDER=
